<svg fill="none" height="355" viewBox="0 0 1080 355" width="1080" xmlns="http://www.w3.org/2000/svg"><g fill="#fff"><path d="m120.51 19.33c-52.81 17.66-78.39 67.3301-84.99 120.63-1.81 14.03-18.15 13.7-13.7-5.61 11.56-51.66 47.86-103.47 96.87-121.63 50.66-18.64996 101.98 1.98 97.36 89.11-5.28 92.41-72.12 216.68-144.56 204.3-21.29-3.47-37.13-24.59-37.62-61.22-.66-53.14 21.29-122.12 36.47-160.24 7.1-18.15 20.96-7.76 14.69 9.08-6.44 18.15-33 83.67-40.27 135.81-7.1 48.02 8.25 66.67 31.02 70.13 66.5 9.9 118.65-106.93 123.27-197.2 3.96-76.57-36.8-97.02996-78.55-83.17z"/><path d="m232.06 218.18c0-28.55 14.19-138.45 57.1-179.55 11.06-10.56 27.06-10.23 23.1 11.39-5.45 28.88-42.58 81.03-61.39 104.46-6.27 20.46-9.9 37.3-11.22 43.9 3.47-6.11 7.43-15.02 12.05-23.43 6.6-12.38 17.49-24.92 33.33-24.92 11.88 0 21.12 8.25 22.94 23.43 13.53-5.78 27.56-10.4 42.25-13.7 6.93-1.32 5.78 5.12 1.82 5.94-14.03 3.14-29.54 8.09-44.06 15.18-.17 5.12-1.16 10.73-2.64 16.5-14.52 54.29-49.01 69.31-60.4 55.12-14.85-18.81 19.31-55.45 45.71-70.63.83-10.73-3.3-19.8-10.07-21.62-11.39-3.14-21.78 13.86-26.24 23.1-5.12 10.4-9.74 21.95-13.2 31.85-.83 2.48-1.65 4.95-2.31 7.59 0 3.46-6.77 5.94-6.77-4.62zm56.93-26.4c-18.32 12.38-44.39 42.58-33.99 50.33 5.61 4.79 20.3-8.09 32.51-45.38.66-1.82.99-3.14 1.48-4.95zm-31.52-58.09c12.38-17.82 26.73-40.1 36.31-59.24 13.7-26.9 6.44-26.57-8.58-2.81-10.56 17-19.97 39.77-27.72 62.05z"/><path d="m386.85 216.53c-7.92 1.32-16.67-.17-22.11-7.26-8.25-11.72-1.16-30.53 6.11-39.94-8.42 1.32-19.8-3.63-21.62-11.88-.83-4.46.99-10.73 7.43-14.69 4.79-2.64 10.56-.66 11.06 3.3.83 3.8-6.27 5.94-5.78 7.26.83 4.29 13.04 7.76 17.49 10.4 15.02 9.74-5.45 27.72-5.45 38.95 0 7.59 8.42 8.25 14.69 6.93 22.11-5.28 49.34-39.77 58.58-49.84 5.12-5.61 12.05-2.97 5.28 4.12-9.74 12.38-39.28 48.02-65.68 52.64z"/><path d="m464.58 155.14c-7.43 22.44-2.97 32.01 6.27 34.16 15.84 3.47 46.37-15.35 58.25-29.54 4.46-6.27 12.05-3.14 5.28 4.12-14.69 17.33-42.41 34.82-66.67 32.18-19.97-1.82-26.9-26.4-17.82-44.23 7.92-7.43 17-3.96 14.69 3.3zm4.29-20.3c-3.96 6.6-14.69 4.95-12.05-4.13 2.64-11.22 22.77-18.48 12.05 4.13z"/><path d="m529.1 193.92c-5.28-2.64-6.6-9.9-5.78-16.67 3.14-27.06 30.53-48.52 58.09-44.56 8.42 1.16 16.17 4.95 19.97 12.87 3.47 7.43-5.94 9.24-9.08 1.32-3.14-5.78-7.92-8.58-13.2-9.08-13.53-1.32-29.37 14.19-35.48 29.21-1.32 2.97-4.62 11.72-2.31 14.85 2.64 3.96 33-26.57 34.99-30.53 1.32-3.13 8.58-5.78 8.09 2.97 0 9.24-1.32 25.74-4.79 45.71 19.97-17.66 46.37-33.33 67.33-40.27 10.56-3.96 7.26 4.95 3.3 5.78-22.44 5.28-53.14 25.58-72.61 45.55-7.92 41.42-24.26 93.24-50.83 118.65-11.06 10.56-27.06 10.23-23.1-11.39 5.28-28.88 42.74-81.03 61.39-104.46 6.11-20.3 11.55-48.68 12.87-55.28-7.1 5.78-31.02 44.56-48.85 35.31zm29.37 40.76c-12.38 17.66-26.57 40.27-36.31 59.24-13.7 26.9-6.44 26.57 8.58 2.81 10.56-17 19.97-39.77 27.72-62.05z"/><path d="m646.93 193.92c-5.28-2.64-6.6-9.9-5.78-16.67 3.13-27.06 30.53-48.52 58.09-44.56 8.42 1.16 16.17 4.95 19.97 12.87 3.47 7.43-5.94 9.24-9.08 1.32-3.14-5.78-7.92-8.58-13.2-9.08-13.53-1.32-29.37 14.19-35.48 29.21-1.32 2.97-4.62 11.72-2.31 14.85 2.64 3.96 30.36-26.73 33.67-30.04 7.92-7.43 17-3.96 14.69 3.3-7.43 22.44-2.97 32.01 6.27 34.16 15.84 3.47 46.37-15.35 58.25-29.54 4.46-6.27 12.05-3.14 5.28 4.12-14.69 17.33-42.41 34.82-66.67 32.18-19.8-1.82-26.57-18.98-17.33-36.96-7.1 5.78-28.55 44.06-46.37 34.82z"/><path d="m815.91 134.02c11.39-50.1698 26.4-90.9298 37.62-101.6498 10.07-11.88 25.91-12.54 24.09 9.08-2.64 29.21-32.34 79.5398-51.49 109.7398-11.06 28.55-19.97 65.35-18.15 98.68.83 17.66 6.27 28.55 17.66 34.49 7.92 4.46-1.16 13.7-11.22 4.95-7.26-6.77-10.89-20.46-12.05-38.29-1.49-23.76 1.49-53.3 6.6-83.5-8.25 13.53-21.45 33.83-35.48 28.05-5.45-2.14-7.43-9.24-7.26-16.01.66-21.62 24.42-54.13 49.67-45.55zm-30.36 33.5c-1.32 3.14-3.14 11.88-.99 15.02 2.48 2.97 18.98-18.15 29.7-41.59-12.71-7.1-25.58 17.33-28.71 26.57zm45.22-37.63c10.56-18.98 22.77-42.4098 30.7-62.3798 10.89-28.05 3.96-27.06-8.75-1.98-9.24 17.82-16.5 41.4198-21.95 64.3598z"/><path d="m853.87 166.86c8.42-17.16 27.56-29.21 47.86-23.43 5.78 3.96-1.65 9.74-7.59 5.61-19.64-9.9-28.55 26.9-27.89 41.09.5 5.78 4.13 7.26 8.75 2.64 5.78-5.78 10.4-19.47 10.89-24.59-20.13-6.44-.33-25.58 4.29-5.78 14.03 2.15 34 .83 47.36-2.64 15.35-3.96 8.09 5.61 3.47 6.6-13.86 3.47-34.33 4.79-49.67 2.64 0 9.41-4.62 23.6-12.87 31.02-7.26 6.77-21.78 8.75-27.06-1.98-4.46-8.91-1.82-21.95 2.47-31.19z"/><path d="m982.92 211.08c-3.96 6.6-16.01 5.28-13.37-3.96 2.64-11.06 24.09-18.81 13.37 3.96zm1.49-34c12.54-50 34.82-133.4999 50.99-150.3399 7.43-7.43 23.27-2.81 10.07 10.4-13.7 13.7-39.44 82.0199-53.96 138.7799-2.64 9.24-9.24 10.4-7.1 1.16z"/></g></svg>